HIERARCHY
ROOT hip
{
	OFFSET 0.000000 0.000000 0.000000 
	CHANNELS 6 Xposition Yposition Zposition Xrotation Zrotation Yrotation
	JOINT abdomen
	{
		OFFSET 0.000000 3.402643 0.000000 
		CHANNELS 3 Xrotation Zrotation Yrotation
		JOINT chest
		{
			OFFSET 0.000000 8.438565 -0.680529 
			CHANNELS 3 Xrotation Zrotation Yrotation
			JOINT neck
			{
				OFFSET 0.000000 10.207942 -0.272212 
				CHANNELS 3 Xrotation Zrotation Yrotation
				JOINT head
				{
					OFFSET 0.000000 3.130431 0.000000 
					CHANNELS 3 Xrotation Zrotation Yrotation
					End Site
					{
						OFFSET 0.000000 3.130435 0.000000 
					}
				}
			}
			JOINT lCollar
			{
				OFFSET 3.470700 6.669187 -0.816635 
				CHANNELS 3 Yrotation Zrotation Xrotation
				JOINT lShldr
				{
					OFFSET 3.198488 0.000000 0.000000 
					CHANNELS 3 Zrotation Yrotation Xrotation
					JOINT lForeArm
					{
						OFFSET 10.139888 0.000000 0.000000 
						CHANNELS 3 Yrotation Zrotation Xrotation
						JOINT lHand
						{
							OFFSET 8.370511 0.000000 0.000000 
							CHANNELS 3 Zrotation Yrotation Xrotation
							End Site
							{
								OFFSET 4.083176 0.000000 0.000000 
							}
						}
					}
				}
			}
			JOINT rCollar
			{
				OFFSET -3.470700 6.669187 -0.816635 
				CHANNELS 3 Yrotation Zrotation Xrotation
				JOINT rShldr
				{
					OFFSET -3.198488 0.000000 0.000000 
					CHANNELS 3 Zrotation Yrotation Xrotation
					JOINT rForeArm
					{
						OFFSET -10.139888 0.000000 0.000000 
						CHANNELS 3 Yrotation Zrotation Xrotation
						JOINT rHand
						{
							OFFSET -8.370511 0.000000 0.000000 
							CHANNELS 3 Zrotation Yrotation Xrotation
							End Site
							{
								OFFSET -4.083176 0.000000 0.000000 
							}
						}
					}
				}
			}
		}
	}
	JOINT lThigh
	{
		OFFSET 5.308129 -1.633274 1.361059 
		CHANNELS 3 Xrotation Zrotation Yrotation
		JOINT lShin
		{
			OFFSET -2.041588 -20.007561 0.000000 
			CHANNELS 3 Xrotation Zrotation Yrotation
			JOINT lFoot
			{
				OFFSET 0.000000 -19.190928 -1.224953 
				CHANNELS 3 Xrotation Yrotation Zrotation
				End Site
				{
					OFFSET 0.000000 -2.449906 4.627600 
				}
			}
		}
	}
	JOINT rThigh
	{
		OFFSET -5.308129 -1.633274 1.361059 
		CHANNELS 3 Xrotation Zrotation Yrotation
		JOINT rShin
		{
			OFFSET 2.041588 -20.007561 0.000000 
			CHANNELS 3 Xrotation Zrotation Yrotation
			JOINT rFoot
			{
				OFFSET 0.000000 -19.190928 -1.224953 
				CHANNELS 3 Xrotation Yrotation Zrotation
				End Site
				{
					OFFSET 0.000000 -2.449906 4.627600 
				}
			}
		}
	}
}
MOTION
Frames: 16
Frame Time: 0.033333
5.382975 52.857449 3.415061 32.431644 3.125000 -5.770952 0.000000 0.000000 0.000000 -8.144532 -8.076173 4.824219 9.658202 -3.027344 -0.263672 -26.582031 2.968750 0.781756 -21.279299 30.000000 25.000000 -82.197266 8.056641 -12.479099 -62.236328 6.660156 19.609375 -1.933594 -15.693358 -63.300781 2.324219 -30.000000 25.000000 76.533203 -12.880860 87.361107 26.279297 -59.931644 35.136719 26.318357 13.574219 -78.613281 -17.369511 15.344664 21.348976 28.899305 0.964593 -0.879707 19.421394 -7.522927 -40.207169 -28.432096 -12.858905 -1.676584 41.485710 4.716032 3.791208 18.334757 6.761598 32.497200 
5.118505 52.813282 3.344223 36.894531 2.822266 -4.980468 0.000000 0.000000 0.000000 -8.027344 -7.539238 4.930271 10.136719 -1.894475 -0.185865 -26.562502 1.445313 0.312500 -25.322266 30.000000 24.995117 -84.560547 10.996094 -11.650392 -65.703125 6.210938 25.136719 -1.708984 -14.814453 -63.408203 1.289063 -30.000000 24.609375 77.187500 -15.830078 88.984375 19.921873 -62.734371 27.373049 27.929689 13.945313 -78.396088 -21.813805 16.197088 21.062328 28.298508 1.145359 -0.789697 18.986231 -8.657036 -38.312599 -30.937857 -11.689866 -1.173929 38.805992 5.327919 3.668988 17.041334 3.936738 34.692345 
4.959461 52.612320 3.515339 39.814453 3.408203 -4.061878 0.000000 0.000000 0.000000 -7.011719 -7.958984 4.832633 10.000001 -1.074219 -0.127137 -26.660156 0.341797 0.058652 -27.939453 30.000000 24.995119 -86.220703 13.457031 -11.081712 -67.343750 5.185547 27.021482 -2.666016 -15.078126 -62.919922 0.917969 -30.000000 24.331059 78.095703 -17.880857 90.400391 7.929688 -60.927734 5.205078 28.798826 9.736328 -79.130859 -24.109579 15.495735 20.449131 27.671734 1.233952 -0.702331 17.968657 -8.742115 -39.117302 -31.596268 -12.039308 -1.260390 36.185612 5.292043 3.385728 15.703768 3.614248 37.222176 
4.869267 52.381424 3.849051 42.626953 4.013672 -3.866504 0.000000 0.000000 0.000000 -6.611328 -7.744140 4.882813 10.517579 -1.406250 -0.156490 -26.865234 0.849609 0.439598 -29.150391 30.000000 24.995119 -86.787109 16.035154 -11.061756 -67.285156 5.419922 27.216797 -3.662110 -15.546875 -62.412109 2.265625 -30.000000 25.000000 78.955078 -18.164063 90.963753 -0.410156 -55.957066 -15.675498 27.539063 6.552734 -79.735214 -25.995943 15.087907 20.014412 27.237196 1.088727 -0.741637 17.433310 -7.937346 -41.926472 -32.327259 -12.575571 -1.392968 33.869541 5.086831 3.145097 15.633459 6.079921 41.147041 
4.755912 52.330978 4.270870 45.869141 4.404297 -4.726563 0.000000 0.000000 0.000000 -6.523438 -7.597657 4.910818 9.970702 -1.191406 -0.126953 -26.777346 1.064453 1.162109 -27.597656 30.000000 24.995119 -88.056641 17.333986 -10.537110 -65.546875 6.503906 28.026237 -3.896484 -15.908204 -62.170643 4.687500 -30.000000 25.000000 78.769531 -16.572266 90.094872 -2.949219 -51.748047 -26.984520 25.800779 3.798828 -80.117180 -28.046909 15.674070 19.875135 26.685846 0.595267 -0.823052 17.360397 -6.986077 -42.489330 -35.882645 -12.527315 -1.187654 34.641209 5.604474 3.325704 15.288482 6.914633 40.162926 
4.592236 52.386375 4.853356 49.267578 4.423828 -5.946512 0.000000 0.000000 0.000000 -6.660156 -7.011719 5.037870 9.423828 -1.572266 -0.166016 -27.187502 1.660156 1.875000 -26.835938 30.000000 25.000000 -89.248047 18.212893 -9.967649 -62.949215 7.861328 27.733038 -3.681641 -14.921875 -62.248608 7.636718 -30.000000 25.000000 79.570313 -14.423828 89.492188 -5.166016 -49.843750 -33.173828 24.267578 0.273438 -80.331985 -30.082827 16.830084 19.950895 25.903000 0.052700 -0.881281 17.832840 -5.659859 -42.575310 -39.076897 -11.317074 -0.640988 34.671413 5.301717 3.279045 15.455118 7.840817 38.934803 
4.407003 52.443596 5.647836 52.041016 4.345703 -6.845703 0.000000 0.000000 0.000000 -6.201172 -6.582151 5.115989 9.199219 -2.128906 -0.195675 -27.656250 2.275391 2.597656 -26.601563 30.000000 24.995117 -89.892578 17.910156 -9.596606 -59.619144 8.144532 25.351563 -4.052734 -13.320313 -62.258110 10.625000 -30.000000 25.000000 80.605469 -12.187498 89.003906 -7.373047 -49.453125 -37.626953 23.818359 -2.519531 -80.380859 -31.404343 17.800587 20.066442 25.244856 -0.464707 -0.980892 18.227018 -4.243624 -42.702473 -40.868301 -10.146394 -0.165228 34.075745 5.028418 3.117550 15.673013 8.518720 37.730206 
4.210114 52.399036 6.658317 54.140625 4.267578 -6.894531 0.000000 0.000000 0.000000 -5.175781 -6.591797 5.106301 9.707031 -2.480469 -0.225032 -27.656248 2.441406 2.930104 -27.031250 30.000000 25.000000 -89.863281 16.132813 -9.453124 -56.337894 7.265625 20.771486 -5.302734 -11.357422 -62.150364 12.568359 -30.000000 25.000000 81.054688 -10.087891 88.328369 -9.570313 -49.873047 -40.292969 24.257813 -2.705078 -80.371552 -32.157413 18.036398 20.004345 24.970127 -0.562212 -0.978746 18.358938 -3.369933 -42.885475 -41.351433 -9.764605 -0.023469 33.514084 5.165607 3.105995 15.714046 8.653338 37.533165 
3.993235 52.216335 7.824759 55.937500 4.335938 -5.887933 0.000000 0.000000 0.000000 -3.896484 -7.226563 4.959709 10.634765 -2.216797 -0.205078 -27.070311 1.845703 2.392893 -28.535156 30.000000 24.995117 -89.687500 12.695313 -9.267578 -54.023438 6.865234 17.343752 -6.816406 -9.228517 -62.050781 12.929688 -30.000000 25.000000 80.449219 -8.339844 87.371628 -11.621094 -50.888676 -41.523438 24.462891 -2.138672 -80.332397 -32.937622 17.361328 19.619802 25.014240 -0.177364 -0.902774 18.174339 -3.316730 -42.026131 -41.202488 -10.340309 -0.193702 33.287613 5.786149 3.210100 15.262336 7.887975 37.974289 
3.722881 51.934399 9.072472 58.027340 4.169922 -4.472656 0.000000 0.000000 0.000000 -2.714844 -7.841860 4.813086 11.406250 -1.552734 -0.156515 -26.484375 1.142578 1.289257 -30.605471 30.000000 25.000000 -89.365234 7.968750 -9.100207 -52.714844 7.929688 17.156855 -7.675781 -7.685547 -62.003262 13.300780 -30.000000 25.000000 79.599609 -6.494141 86.307487 -14.355468 -52.597656 -43.146538 24.726564 -3.417969 -80.283783 -34.290112 16.916845 19.173321 25.394274 0.291382 -0.802356 18.029110 -3.947215 -40.054157 -41.400360 -10.692409 -0.301738 33.472027 6.498673 3.378861 14.130556 5.420682 37.827507 
3.416607 51.655334 10.352206 61.054684 3.544922 -3.242188 0.000000 0.000000 0.000000 -1.875000 -7.900392 4.794922 11.650391 -1.162109 -0.126953 -26.699219 0.947266 0.468911 -32.158203 29.999998 25.000000 -88.447266 2.001953 -9.150390 -51.718754 10.312500 19.033203 -7.070312 -6.240234 -62.188557 14.775392 -30.000000 25.000000 79.316406 -3.437500 85.126953 -17.792971 -53.291019 -47.285156 24.853518 -5.966797 -80.215858 -36.556206 17.181440 18.818005 25.738714 0.687133 -0.722567 18.272863 -5.202480 -38.499828 -43.196804 -9.969614 0.014730 34.399475 6.786160 3.556740 13.148305 1.458586 37.429142 
3.161256 51.417439 11.692986 65.126953 2.958984 -2.069808 0.000000 0.000000 0.000000 -1.181641 -7.802735 4.794921 11.406250 -1.201172 -0.136923 -27.460938 0.869141 -0.068359 -33.164063 30.000000 24.995117 -86.591797 -5.322265 -9.570313 -50.205078 12.744141 19.197063 -4.677734 -3.408203 -62.871094 16.796877 -30.000000 25.000000 79.150391 1.103516 83.603516 -21.601561 -52.578125 -53.478573 24.228516 -8.789062 -80.087891 -38.916317 17.246622 18.342392 24.910585 0.956713 -0.630729 18.135984 -6.363220 -37.502571 -46.264126 -9.442348 0.330536 35.321823 7.162031 3.765274 13.232262 -1.769983 37.663918 
3.021402 51.101555 13.194584 70.107422 2.714844 -1.298366 0.000000 0.000000 0.000000 -0.996094 -7.871093 4.775391 11.621094 -1.298828 -0.146706 -27.822268 0.722656 -0.849609 -34.462891 29.999998 25.000000 -83.535156 -13.115233 -10.470964 -48.076176 14.833986 16.621094 -1.337891 -0.292970 -63.535301 19.062498 -30.000000 25.000000 77.451172 7.041016 81.201172 -25.341797 -51.123047 -59.435760 22.587891 -12.177733 -79.794922 -40.454521 16.841755 17.895189 22.942463 1.141130 -0.458004 15.695360 -8.230742 -37.162838 -48.741970 -9.793589 0.343225 34.364712 7.685289 3.782892 12.918637 -1.487294 38.374977 
3.011949 50.429039 14.959628 75.615234 2.666016 -1.923374 0.000000 0.000000 0.000000 -2.138672 -7.734375 4.822905 12.861328 -1.406250 -0.156490 -27.060549 0.800781 -1.337888 -35.205078 30.000000 25.000000 -79.208984 -19.619141 -11.943359 -46.005859 16.865232 14.284277 1.191406 1.474609 -63.759769 22.177734 -30.000000 25.000000 72.519531 14.433594 77.287590 -28.085938 -49.140621 -63.271484 20.087891 -16.904299 -79.140625 -41.083160 16.981819 17.792715 22.105673 1.606379 -0.302824 10.924712 -11.705781 -39.415886 -49.792408 -9.755057 0.420758 32.027081 6.966264 3.395416 10.533984 2.846826 38.704548 
3.120760 49.121407 16.999098 80.224609 2.792969 -3.974609 0.000000 0.000000 0.000000 -3.574219 -7.207031 4.960937 14.287108 -1.894531 -0.195313 -25.976564 1.308594 -0.693359 -34.687500 30.000000 24.995119 -74.130859 -24.384766 -13.783329 -44.736328 18.466797 14.736331 3.730468 3.535156 -63.740234 25.947264 -30.000000 25.000000 63.759769 22.470705 71.771309 -29.257813 -46.435547 -63.801521 17.001953 -22.832033 -77.880859 -39.938972 17.517569 18.227793 23.801868 2.396547 -0.241928 6.014526 -13.732633 -41.733261 -49.572990 -9.022559 0.647875 31.849958 4.960104 2.942376 7.247785 7.909219 38.472202 
3.325424 47.034878 19.195118 82.851563 3.251953 -6.142578 0.000000 0.000000 0.000000 -3.876953 -6.845703 5.039062 14.921875 -2.275294 -0.234747 -25.253906 1.767578 0.263973 -33.574219 30.000000 24.995117 -67.861328 -28.554688 -16.093750 -44.160156 18.925781 17.568359 8.359375 6.601563 -63.377785 28.466797 -30.000000 25.000000 51.503910 29.394531 64.975494 -27.695314 -42.880863 -62.167965 12.207031 -29.375002 -75.732422 -36.461689 17.233435 18.863485 27.855114 3.313563 -0.270133 2.100607 -11.170757 -41.329758 -48.177746 -9.100392 0.531743 36.188232 2.943116 2.929694 4.684965 10.792377 38.003456 
